<svg width="32" height="32" viewBox="0 0 32 32" fill="none" xmlns="http://www.w3.org/2000/svg">
<path d="M0 0.975285V31.0318C0.00117225 31.2897 0.104442 31.5366 0.287217 31.7186C0.469992 31.9005 0.71739 32.0027 0.975285 32.0027H31.0318C31.2885 32.0008 31.5341 31.8978 31.7153 31.7161C31.8965 31.5343 31.9988 31.2885 32 31.0318V20.7789L8.60024 0H0.975285C0.716624 0 0.468556 0.102753 0.285654 0.285654C0.102753 0.468556 0 0.716624 0 0.975285" fill="#ED1B33"/>
<path d="M31.0317 0H10.3965L31.9999 19.1794V0.975285C31.9999 0.717848 31.8982 0.470849 31.7168 0.28815C31.5354 0.105451 31.2892 0.00187227 31.0317 0" fill="#ED1B33"/>
<path d="M23.2818 20.4431C23.2938 21.5945 23.1097 22.7395 22.7374 23.8291C22.4051 24.8067 21.894 25.714 21.2301 26.5049C20.6028 27.2464 19.8236 27.8448 18.9453 28.2595C18.0474 28.6731 17.0705 28.8872 16.082 28.8872C15.0934 28.8872 14.1165 28.6731 13.2186 28.2595C12.3457 27.8422 11.5714 27.2441 10.9471 26.5049C10.2833 25.714 9.77216 24.8067 9.43983 23.8291C9.06779 22.7394 8.884 21.5944 8.89633 20.4431C8.884 19.2917 9.06779 18.1467 9.43983 17.0571C9.77237 16.0798 10.2835 15.1728 10.9471 14.3821C11.5735 13.6403 12.3469 13.0365 13.2186 12.6089C14.1143 12.1873 15.092 11.9688 16.082 11.9688C17.0719 11.9688 18.0496 12.1873 18.9453 12.6089C19.8225 13.0338 20.6008 13.6379 21.2301 14.3821C21.8938 15.1728 22.4049 16.0798 22.7374 17.0571C23.1097 18.1466 23.2938 19.2917 23.2818 20.4431ZM19.519 20.4431C19.5256 19.7523 19.4413 19.0637 19.2681 18.395C19.1247 17.8244 18.8848 17.2825 18.5588 16.7928C18.2787 16.3716 17.9071 16.0192 17.4718 15.7617C17.0525 15.5199 16.5761 15.3947 16.0922 15.3991C15.5992 15.3922 15.1134 15.5174 14.6851 15.7617C14.25 16.0195 13.8784 16.3719 13.5981 16.7928C13.2724 17.2827 13.0325 17.8245 12.8888 18.395C12.7163 19.0638 12.6323 19.7524 12.6388 20.4431C12.6312 21.1309 12.7153 21.8167 12.8888 22.4823C13.0344 23.0477 13.2742 23.5845 13.5981 24.0702C13.8784 24.4912 14.25 24.8436 14.6851 25.1014C15.1132 25.3461 15.5991 25.4713 16.0922 25.464C16.5762 25.4688 17.0526 25.3436 17.4718 25.1014C17.9071 24.8439 18.2787 24.4914 18.5588 24.0702C18.8831 23.5847 19.1229 23.0478 19.2681 22.4823C19.4422 21.8168 19.5266 21.131 19.519 20.4431Z" fill="white"/>
<path d="M7.66668 11.9707H4.34717V28.8857H7.66668V11.9707Z" fill="white"/>
<path d="M22.0929 7.02844C21.8839 7.0299 21.6766 6.99169 21.482 6.91584C21.3 6.84694 21.1332 6.74336 20.9908 6.61084C20.853 6.48179 20.7418 6.32696 20.6636 6.15511C20.583 5.97627 20.5422 5.78207 20.5439 5.5859C20.5413 5.38383 20.5898 5.18436 20.6849 5.00605C20.7835 4.82921 20.9215 4.6775 21.0883 4.56274C21.2775 4.43132 21.4872 4.33244 21.7089 4.27015C21.9637 4.19709 22.2277 4.16125 22.4927 4.16376C22.7211 4.16448 22.9489 4.18525 23.1736 4.22582C23.3824 4.26125 23.5871 4.31769 23.7845 4.39428V4.01924C23.7845 3.64154 23.6784 3.346 23.4662 3.13262C23.254 2.91924 22.9529 2.81166 22.5628 2.80989C22.0976 2.80989 21.6079 2.98987 21.0936 3.34984L20.8356 2.83737C21.432 2.43662 22.0311 2.23594 22.6328 2.23535C23.2345 2.23476 23.7074 2.39731 24.0514 2.723C24.3901 3.04986 24.5594 3.50825 24.5594 4.09815V5.984C24.5594 6.16753 24.6419 6.26151 24.8068 6.26772V6.94066C24.7243 6.95219 24.657 6.96106 24.6038 6.96638C24.5478 6.97256 24.4916 6.97552 24.4353 6.97524C24.3681 6.97861 24.3008 6.96824 24.2377 6.94477C24.1746 6.92129 24.1169 6.8852 24.0682 6.8387C23.9779 6.74932 23.9202 6.63226 23.9042 6.50622L23.8865 6.17905C23.6838 6.45371 23.4139 6.67169 23.1027 6.8121C22.7847 6.95701 22.4388 7.03084 22.0893 7.02844H22.0929ZM22.2932 6.44415C22.5594 6.44641 22.8231 6.3939 23.0681 6.28988C23.2836 6.20436 23.4718 6.06185 23.6125 5.8776C23.6622 5.83429 23.7026 5.78143 23.7314 5.72218C23.7601 5.66293 23.7767 5.59849 23.7801 5.53271V4.85089C23.4069 4.70468 23.0097 4.62951 22.6089 4.62924C22.2199 4.62924 21.9028 4.71199 21.6575 4.87749C21.5454 4.944 21.4524 5.03858 21.3879 5.15192C21.3234 5.26525 21.2895 5.39343 21.2896 5.52384C21.2887 5.64878 21.3147 5.77245 21.3658 5.88647C21.4148 5.99797 21.4871 6.09772 21.5777 6.17905C21.672 6.2632 21.7812 6.32904 21.8996 6.37322C22.027 6.42141 22.1623 6.44546 22.2986 6.44415" fill="white"/>
<path d="M25.3246 4.62151C25.3227 4.30669 25.3795 3.99428 25.4921 3.70031C25.5996 3.41851 25.7624 3.16106 25.9709 2.94313C26.181 2.72518 26.432 2.55074 26.7095 2.42978C27.0127 2.29975 27.3398 2.2351 27.6697 2.24004C28.0875 2.22902 28.5002 2.33463 28.8613 2.54504C29.1865 2.74026 29.4489 3.02456 29.6176 3.36428L28.856 3.60278C28.7427 3.38961 28.5711 3.2131 28.3613 3.09386C28.1444 2.97379 27.8998 2.91265 27.652 2.91653C27.4461 2.91579 27.2425 2.9589 27.0546 3.04298C26.8667 3.12706 26.6989 3.25019 26.5623 3.40418C26.4253 3.56241 26.3175 3.74374 26.244 3.9397C26.0814 4.3794 26.0814 4.86274 26.244 5.30244C26.3208 5.50536 26.4331 5.693 26.5756 5.85658C26.7118 6.01049 26.8777 6.13533 27.0632 6.22364C27.2498 6.31257 27.4541 6.35804 27.6608 6.35663C27.797 6.35638 27.9325 6.33698 28.0634 6.299C28.1904 6.26307 28.3123 6.21093 28.426 6.14384C28.5317 6.08165 28.6286 6.00561 28.7141 5.91775C28.7924 5.83864 28.8529 5.74372 28.8915 5.63935L29.6522 5.86899C29.5808 6.04126 29.4806 6.20015 29.356 6.3389C29.2279 6.48191 29.0783 6.60424 28.9127 6.70153C28.5384 6.91777 28.1135 7.03096 27.6812 7.02958C27.3632 7.03398 27.0477 6.97253 26.7546 6.84909C26.4615 6.72565 26.1971 6.54289 25.978 6.3123C25.7691 6.0905 25.605 5.83037 25.4948 5.54626C25.3793 5.25171 25.321 4.93788 25.3228 4.62151" fill="white"/>
</svg>
